# xmcd
#
# Track frame offsets:
#	150
#	11391
#	23177
#	35384
#	45193
#	67152
#	76100
#	83740
#	96683
#	109758
#	118259
#	128931
#	140525
#	151542
#	158182
#	171082
#	183192
#
# Disc length: 2976 seconds
#
# Revision: 0
# Processed by: cddbd v1.4PL0 Copyright (c) Steve Scherf et al.
# Submitted via: audiograbber 1.80.04
#
DISCID=d10b9e11
DTITLE=Various Artist - Ce Soir C'est La Fête Vol 1
DYEAR=1900
DGENRE=Pop
TTITLE0=R. Paradis - La Bastringue (Accordéon)
TTITLE1=A. Lavoie - Le Festin De Campagne
TTITLE2=Carl Gauthier - Babelli Babellon
TTITLE3=Chef Wanitou - Le Boggy De Mon Oncle Charly
TTITLE4=Carl Gauthier - Pot-Pourri Party
TTITLE5=Sylvie Bélair - Ma Tante Thérèse
TTITLE6=Ma'm Berthiaume - Le Garçon Du Canton
TTITLE7=A. Lavoie - Le bon Vin M'Endort
TTITLE8=André Bernier - Reel Carmen (Accordéon)
TTITLE9=A. Lavoie - Son  Voile Qui Volait
TTITLE10=Carl Gauthier - Le P'tit Ramoneur
TTITLE11=André Bernier - La Gigue À Ti-Pierre (Accordéon)
TTITLE12=S. Plourde - Ma Tante Gervaise 
TTITLE13=Oscar Thiffault - La Chanson Des Prunes
TTITLE14=Denis Coté - La Valse Du Nord
TTITLE15=Oscar Thiffault - Passe La Bouteille
TTITLE16=Yvon  Cuillerier - Quadrille De Rivière Du Loup (Callé)
EXTD=
EXTT0=
EXTT1=
EXTT2=
EXTT3=
EXTT4=
EXTT5=
EXTT6=
EXTT7=
EXTT8=
EXTT9=
EXTT10=
EXTT11=
EXTT12=
EXTT13=
EXTT14=
EXTT15=
EXTT16=
PLAYORDER=
